<?xml version="1.0" encoding="UTF-8"?>
<svg width="2677px" height="1967px" viewBox="0 0 2677 1967" version="1.1" xmlns="http://www.w3.org/2000/svg" xmlns:xlink="http://www.w3.org/1999/xlink">
    <g id="Page-1" stroke="none" stroke-width="1" fill="none" fill-rule="evenodd">
        <g id="vecteezy_letter-rk-simple-shapes-alphabet-creative-monogram-abstract_35554753" transform="translate(0.3506, 0.8037)" fill="#C9A87A" fill-rule="nonzero">
            <g id="g8" transform="translate(1338.0246, 982.8648) scale(-1, 1) rotate(-180) translate(-1338.0246, -982.8648)translate(0, 0)">
                <g id="g10" transform="translate(-0, 0)">
                    <polyline id="path14" points="2666.67593 1965.58662 2286.56928 1965.58662 1498.19596 1010.18664 2301.48928 0 2676.04927 0 1875.48929 1006.77331 2666.67593 1965.58662"></polyline>
                    <path d="M7.80841831e-15,1965.58662 L830.782646,1965.58662 C852.502645,1966.35995 1172.74264,1972.15995 1353.63597,1708.51996 C1501.1293,1493.5733 1474.6493,1218.0533 1356.9293,1040.81331 C1310.8893,971.506642 1256.8093,926.119977 1218.6493,898.879978 L1934.72928,4.54747351e-13 L1574.94263,4.54747351e-13 L799.382647,982.799975 C799.382647,982.799975 1159.6493,1032.39997 1159.6493,1354.07997 C1159.6493,1528.31996 1083.56931,1613.15996 1013.83597,1654.34663 C968.715976,1680.98662 916.355977,1692.75996 863.955978,1692.75996 L214.102661,1692.75996 L7.80841831e-15,1965.58662" id="path16"></path>
                </g>
            </g>
        </g>
    </g>
</svg>